<?xml version="1.0" encoding="iso-8859-1"?>
<!-- Generator: Adobe Illustrator 19.0.0, SVG Export Plug-In . SVG Version: 6.00 Build 0)  -->
<svg version="1.1" id="Capa_1" xmlns="http://www.w3.org/2000/svg" xmlns:xlink="http://www.w3.org/1999/xlink" x="0px" y="0px"
	 viewBox="0 0 418.089 418.089" style="enable-background:new 0 0 418.089 418.089;" xml:space="preserve">
<path id="XMLID_749_" d="M330.149,378.754c0-3.866,3.134-7,7-7h42.516c3.866,0,7,3.134,7,7s-3.134,7-7,7h-42.516
	C333.283,385.754,330.149,382.62,330.149,378.754z M418.086,150.651v71.413c0.001,0.055,0.002,0.109,0.002,0.165
	s-0.001,0.11-0.002,0.165v71.413c0.001,0.055,0.002,0.109,0.002,0.165s-0.001,0.11-0.002,0.165v107.088
	c0,9.299-7.564,16.865-16.863,16.865H294.672c-9.299,0-16.863-7.566-16.863-16.865V16.865C277.809,7.566,285.374,0,294.672,0
	h106.551c9.299,0,16.863,7.566,16.863,16.865v61.713c0.001,0.055,0.002,0.11,0.002,0.165s-0.001,0.11-0.002,0.165v71.414
	c0.001,0.055,0.002,0.109,0.002,0.165S418.087,150.596,418.086,150.651z M404.086,300.97H291.809v100.253
	c0,1.553,1.312,2.865,2.863,2.865h106.551c1.552,0,2.863-1.312,2.863-2.865V300.97z M404.086,229.229H291.809v57.742h112.277
	V229.229z M404.086,157.486H291.809v57.742h112.277V157.486z M404.086,85.744H291.809v57.743h112.277V85.744z M404.086,16.865
	c0-1.553-1.312-2.865-2.863-2.865H294.672c-1.552,0-2.863,1.312-2.863,2.865v54.878h112.277V16.865z M354.406,359.549h25.259
	c3.866,0,7-3.134,7-7s-3.134-7-7-7h-25.259c-3.866,0-7,3.134-7,7S350.54,359.549,354.406,359.549z M8.427,141.378
	c-6.575-6.577-6.575-17.277,0.001-23.852l75.34-75.34c3.178-3.178,7.412-4.928,11.925-4.928c4.514,0,8.749,1.75,11.926,4.929
	l43.589,43.588c0.057,0.054,0.113,0.108,0.17,0.164c0.056,0.056,0.11,0.112,0.163,0.169l50.425,50.424
	c0.047,0.045,0.094,0.09,0.141,0.137c0.046,0.046,0.092,0.093,0.136,0.14l52.37,52.369c2.733,2.733,2.733,7.166,0,9.899
	c-1.527,1.527-3.587,2.196-5.578,2.022l-80.543,80.542l40.829,40.829l35.393-35.391c2.733-2.734,7.166-2.733,9.899,0
	c1.366,1.367,2.05,3.158,2.05,4.95s-0.684,3.583-2.051,4.95l-35.392,35.391l35.393,35.392c2.733,2.734,2.733,7.166,0,9.899
	c-1.367,1.367-3.159,2.05-4.95,2.05s-3.583-0.684-4.95-2.05L8.427,141.378z M197.154,151.521l-79.392,79.393l40.829,40.83
	l79.393-79.392L197.154,151.521z M146.424,100.792l-79.393,79.392l40.831,40.831l79.392-79.393L146.424,100.792z M18.328,131.479
	l38.805,38.805l79.393-79.392L97.718,52.086c-0.72-0.72-1.577-0.828-2.025-0.828c-0.447,0-1.305,0.108-2.024,0.827l-75.341,75.341
	C17.229,128.524,17.229,130.38,18.328,131.479z M266.553,411.089c0,3.866-3.134,7-7,7H16.865C7.566,418.089,0,410.523,0,401.224
	V294.674c0-9.299,7.565-16.864,16.864-16.864h61.692c0.123-0.003,0.25-0.003,0.373,0h37.917c3.866,0,7,3.134,7,7s-3.134,7-7,7
	H85.744v112.278h57.743V318.45c0-3.866,3.134-7,7-7s7,3.134,7,7v85.639h57.742v-13.896c0-3.866,3.134-7,7-7s7,3.134,7,7v13.896
	h30.324C263.419,404.089,266.553,407.223,266.553,411.089z M71.744,291.811H16.865c-1.553,0-2.864,1.312-2.864,2.864v106.549
	c0,1.553,1.312,2.865,2.864,2.865h54.879V291.811z"/>
<g>
</g>
<g>
</g>
<g>
</g>
<g>
</g>
<g>
</g>
<g>
</g>
<g>
</g>
<g>
</g>
<g>
</g>
<g>
</g>
<g>
</g>
<g>
</g>
<g>
</g>
<g>
</g>
<g>
</g>
</svg>
